Coordinates
version=1
nRows=60
nColumns=12
inDegrees=yes

Units are S.I. units (second, meters, Newtons, ...)
Angles are in degrees

endheader
time	SC_y	SC_z	SC_x	AC_y	AC_z	AC_x	GH_y	GH_z	GH_yy	EL_x	PS_y
       0.0              -41.24          19.12          29.37          52.91         -6.719          1.883          152.1          51.35         -82.39          62.87          88.36
   0.03973              -41.25          19.12          29.37          52.91         -6.717          1.883          152.1          51.35         -82.38          62.87          88.36
   0.07945              -41.25          19.12          29.38          52.91         -6.716          1.883          152.1          51.36         -82.36          62.87          88.36
    0.1192              -41.25          19.12          29.39          52.91         -6.714          1.883          152.0          51.36         -82.34          62.87          88.35
    0.1589              -41.25          19.11           29.4          52.91         -6.712          1.882          152.0          51.36         -82.32          62.87          88.35
    0.1986              -41.25          19.11           29.4           52.9          -6.71          1.882          151.9          51.36          -82.3          62.87          88.34
    0.2384              -41.25          19.11          29.41           52.9         -6.708          1.882          151.9          51.37         -82.27          62.87          88.34
    0.2781              -41.25          19.11          29.42           52.9         -6.706          1.882          151.8          51.37         -82.25          62.87          88.33
    0.3178              -41.26          19.11          29.43           52.9         -6.704          1.882          151.8          51.37         -82.22          62.86          88.32
    0.3575              -41.26          19.11          29.45           52.9         -6.701          1.881          151.7          51.37         -82.19          62.86          88.32
    0.3973              -41.26          19.11          29.46           52.9         -6.699          1.881          151.6          51.38         -82.16          62.86          88.31
     0.437              -41.26           19.1          29.47           52.9         -6.696          1.881          151.6          51.38         -82.13          62.86           88.3
    0.4767              -41.27           19.1          29.48          52.89         -6.693           1.88          151.5          51.39         -82.09          62.86          88.29
    0.5164              -41.27           19.1           29.5          52.89         -6.689           1.88          151.4          51.39         -82.05          62.86          88.28
    0.5562              -41.27           19.1          29.52          52.89         -6.686           1.88          151.3          51.39         -82.01          62.86          88.27
    0.5959              -41.28          19.09          29.53          52.89         -6.682          1.879          151.2           51.4         -81.97          62.86          88.26
    0.6356              -41.28          19.09          29.55          52.88         -6.677          1.879          151.1           51.4         -81.92          62.86          88.25
    0.6753              -41.28          19.09          29.57          52.88         -6.673          1.878          151.0          51.41         -81.86          62.86          88.24
    0.7151              -41.29          19.08           29.6          52.88         -6.667          1.878          150.8          51.42          -81.8          62.85          88.22
    0.7548              -41.29          19.08          29.62          52.87         -6.662          1.877          150.7          51.42         -81.74          62.85          88.21
    0.7945               -41.3          19.07          29.65          52.87         -6.656          1.877          150.5          51.43         -81.67          62.85          88.19
    0.8342               -41.3          19.07          29.68          52.87         -6.649          1.876          150.4          51.44         -81.59          62.85          88.17
     0.874              -41.31          19.06          29.71          52.86         -6.641          1.875          150.2          51.45         -81.51          62.85          88.15
    0.9137              -41.31          19.06          29.75          52.86         -6.633          1.874          149.9          51.46         -81.41          62.84          88.12
    0.9534              -41.32          19.05          29.79          52.85         -6.624          1.873          149.7          51.47         -81.31          62.84           88.1
    0.9931              -41.33          19.04          29.84          52.85         -6.614          1.872          149.4          51.48         -81.19          62.84          88.07
     1.033              -41.34          19.04          29.89          52.84         -6.602          1.871          149.2           51.5         -81.06          62.83          88.04
     1.073              -41.35          19.03          29.95          52.83         -6.589           1.87          148.8          51.51         -80.91          62.83           88.0
     1.112              -41.36          19.02          30.01          52.82         -6.574          1.868          148.4          51.53         -80.74          62.83          87.96
     1.152              -41.38           19.0          30.09          52.81         -6.558          1.866          148.0          51.55         -80.55          62.82          87.91
     1.192              -41.39          18.99          30.17           52.8         -6.539          1.864          147.5          51.57         -80.33          62.82          87.86
     1.232              -41.41          18.98          30.27          52.79         -6.517          1.862          147.0           51.6         -80.08          62.81           87.8
     1.271              -41.43          18.96          30.38          52.77         -6.492           1.86          146.3          51.63          -79.8           62.8          87.73
     1.311              -41.45          18.94          30.51          52.75         -6.462          1.857          145.6          51.67         -79.46          62.79          87.65
     1.351              -41.48          18.91          30.67          52.73         -6.428          1.853          144.7          51.71         -79.07          62.78          87.55
      1.39              -41.52          18.88          30.85          52.71         -6.388          1.849          143.7          51.76         -78.61          62.77          87.44
      1.43              -41.56          18.85          31.06          52.68          -6.34          1.844          142.4          51.81         -78.06          62.76           87.3
      1.47               -41.6          18.81          31.32          52.64         -6.282          1.838          141.0          51.88          -77.4          62.74          87.14
      1.51              -41.66          18.76          31.63           52.6         -6.212          1.831          139.2          51.97         -76.61          62.72          86.95
     1.549              -41.73           18.7          32.01          52.55         -6.127          1.822          137.0          52.07         -75.64          62.69          86.71
     1.589              -41.81          18.62          32.48          52.49         -6.022          1.811          134.3           52.2         -74.44          62.66          86.42
     1.629              -41.92          18.53          33.06          52.41         -5.891          1.797          131.0          52.36         -72.94          62.63          86.05
     1.668              -42.06          18.41           33.8          52.31         -5.726           1.78          126.7          52.56         -71.06          62.58          85.59
     1.708              -42.23          18.27          34.73          52.18         -5.517          1.759          121.4          52.81         -68.66          62.52          85.01
     1.748              -42.45          18.07          35.93          52.02         -5.248          1.731          114.5          53.14          -65.6          62.44          84.26
     1.788              -42.73          17.83          37.47          51.81         -4.904          1.695          105.7          53.56         -61.66          62.34          83.29
     1.827              -43.09          17.52          39.44          51.54         -4.464           1.65          94.44          54.09         -56.64          62.21          82.06
     1.867              -43.54          17.12           41.9          51.21         -3.911          1.592          80.28          54.77         -50.32          62.04          80.52
     1.907              -44.09          16.64          44.91           50.8         -3.237          1.523          63.03          55.59         -42.63          61.85          78.64
     1.947              -44.73          16.09           48.4          50.32         -2.455          1.442          43.03          56.54          -33.7          61.62          76.45
     1.986              -45.43          15.49          52.18          49.81         -1.609          1.354          21.38          57.56         -24.04          61.37          74.09
     2.026              -46.12          14.89          55.96           49.3        -0.7632          1.266        -0.2757          58.59         -14.38          61.12          71.72
     2.066              -46.76          14.33          59.45          48.82        0.01816          1.186         -20.27          59.54         -5.457          60.89          69.54
     2.105              -47.31          13.85          62.46          48.42         0.6923          1.116         -37.52          60.36          2.241          60.69          67.66
     2.145              -47.76          13.46          64.93          48.08          1.245          1.059         -51.68          61.03          8.558          60.53          66.11
     2.185              -48.12          13.15          66.89          47.81          1.685          1.013         -62.94          61.57          13.58           60.4          64.88
     2.225              -48.41           12.9          68.43          47.61           2.03         0.9773         -71.75          61.99          17.51           60.3          63.92
     2.264              -48.63          12.71          69.63          47.44          2.298         0.9495         -78.62          62.31          20.58          60.22          63.17
     2.304               -48.8          12.56          70.56          47.32          2.508         0.9278         -83.99          62.57          22.97          60.16          62.59
     2.344              -48.93          12.45           71.3          47.22          2.673         0.9107         -88.21          62.77          24.86          60.11          62.12
